<?xml version="1.0" encoding="UTF-8"?>
<svg width="116px" height="29px" viewBox="0 0 116 29" version="1.1" xmlns="http://www.w3.org/2000/svg" xmlns:xlink="http://www.w3.org/1999/xlink">
    <!-- Generator: Sketch 52.5 (67469) - http://www.bohemiancoding.com/sketch -->
    <title>hueman-logo</title>
    <desc>Created with Sketch.</desc>
    <g id="Page-1" stroke="none" stroke-width="1" fill="none" fill-rule="evenodd">
        <g id="Artboard" transform="translate(-336.000000, -450.000000)">
            <g id="hueman-logo" transform="translate(336.000000, 450.000000)">
                <path d="M1.636,27.216 C1.29999832,27.216 0.97600156,27.1680005 0.664,27.072 L0.664,3.06 C0.664,2.38799664 0.83799826,1.85400198 1.186,1.458 C1.53400174,1.06199802 2.01999688,0.864 2.644,0.864 C2.98000168,0.864 3.30399844,0.91199952 3.616,1.008 L3.616,12.348 C4.31200348,9.5879862 6.05198608,8.208 8.836,8.208 C10.6600091,8.208 12.1299944,8.79599412 13.246,9.972 C14.3620056,11.1480059 14.92,12.8279891 14.92,15.012 L14.92,25.02 C14.92,25.6920034 14.7460017,26.225998 14.398,26.622 C14.0499983,27.018002 13.5640031,27.216 12.94,27.216 C12.6039983,27.216 12.2800016,27.1680005 11.968,27.072 L11.968,14.796 C11.968,13.4999935 11.6260034,12.4860037 10.942,11.754 C10.2579966,11.0219963 9.30400612,10.656 8.08,10.656 C6.66399292,10.656 5.5660039,11.3399932 4.786,12.708 C4.0059961,14.0760068 3.616,16.0079875 3.616,18.504 L3.616,25.02 C3.616,25.6920034 3.44200174,26.225998 3.094,26.622 C2.74599826,27.018002 2.26000312,27.216 1.636,27.216 Z" id="hueman" fill="#59A659"></path>
                <path d="M74.468,9 C76.2200088,9 77.6299947,9.60599394 78.698,10.818 C79.7660053,12.0300061 80.3,13.6439899 80.3,15.66 L80.3,26.604 C80.3,27.4440042 80.0120029,27.864 79.436,27.864 C79.2919993,27.864 79.1360008,27.8160005 78.968,27.72 L78.968,15.66 C78.968,13.9799916 78.5540041,12.636005 77.726,11.628 C76.8979959,10.619995 75.8120067,10.116 74.468,10.116 C73.3639945,10.116 72.3860043,10.4579966 71.534,11.142 C70.6819957,11.8260034 70.0160024,12.7799939 69.536,14.004 C69.0559976,15.2280061 68.816,16.643992 68.816,18.252 L68.816,26.604 C68.816,27.4440042 68.5280029,27.864 67.952,27.864 C67.8079993,27.864 67.6520008,27.8160005 67.484,27.72 L67.484,15.66 C67.484,13.9799916 67.0700041,12.636005 66.242,11.628 C65.4139959,10.619995 64.3280067,10.116 62.984,10.116 C61.8799945,10.116 60.9020043,10.4579966 60.05,11.142 C59.1979957,11.8260034 58.5320024,12.7799939 58.052,14.004 C57.5719976,15.2280061 57.332,16.643992 57.332,18.252 L57.332,26.604 C57.332,27.4440042 57.0440029,27.864 56.468,27.864 C56.3239993,27.864 56.1680008,27.8160005 56,27.72 L56,10.476 C56,9.6359958 56.2879971,9.216 56.864,9.216 C57.0080007,9.216 57.1639992,9.26399952 57.332,9.36 L57.332,13.032 C57.8360025,11.831994 58.5799951,10.8600037 59.564,10.116 C60.5480049,9.37199628 61.6879935,9 62.984,9 C64.376007,9 65.5639951,9.3899961 66.548,10.17 C67.5320049,10.9500039 68.2039982,12.035993 68.564,13.428 C69.1160028,12.035993 69.9019949,10.9500039 70.922,10.17 C71.9420051,9.3899961 73.1239933,9 74.468,9 Z M89.984,28.08 C88.2799915,28.08 86.924005,27.576005 85.916,26.568 C84.907995,25.559995 84.404,24.2040085 84.404,22.5 C84.404,20.7479912 84.9739943,19.3620051 86.114,18.342 C87.2540057,17.3219949 88.7839904,16.812 90.704,16.812 C91.8080055,16.812 92.7919957,16.9679984 93.656,17.28 C94.5200043,17.5920016 95.2159974,18.0239972 95.744,18.576 L95.744,15.84 C95.744,14.0879912 95.2820046,12.6900052 94.358,11.646 C93.4339954,10.6019948 92.1920078,10.08 90.632,10.08 C88.8079909,10.08 87.1640073,10.8479923 85.7,12.384 C85.2199976,12.384 84.98,12.1680022 84.98,11.736 C84.98,11.4719987 85.2499973,11.1180022 85.79,10.674 C86.3300027,10.2299978 87.0439956,9.84000168 87.932,9.504 C88.8200044,9.16799832 89.767995,9 90.776,9 C92.6720095,9 94.1959942,9.62399376 95.348,10.872 C96.5000058,12.1200062 97.076,13.7759897 97.076,15.84 L97.076,26.604 C97.076,27.4440042 96.7880029,27.864 96.212,27.864 C96.0679993,27.864 95.9120008,27.8160005 95.744,27.72 L95.744,25.416 C95.0719966,26.2320041 94.232005,26.8799976 93.224,27.36 C92.215995,27.8400024 91.1360058,28.08 89.984,28.08 Z M89.84,27 C90.8000048,27 91.7359954,26.802002 92.648,26.406 C93.5600046,26.009998 94.3039971,25.4520036 94.88,24.732 C95.4560029,24.0119964 95.744,23.1840047 95.744,22.248 L95.744,21.06 C95.744,20.0279948 95.2340051,19.2420027 94.214,18.702 C93.1939949,18.1619973 91.9640072,17.892 90.524,17.892 C89.0599927,17.892 87.9020043,18.3119958 87.05,19.152 C86.1979957,19.9920042 85.772,21.1199929 85.772,22.536 C85.772,23.9040068 86.1379963,24.989996 86.87,25.794 C87.6020037,26.598004 88.5919938,27 89.84,27 Z M102.656,27.864 C102.511999,27.864 102.356001,27.8160005 102.188,27.72 L102.188,10.476 C102.188,9.6359958 102.475997,9.216 103.052,9.216 C103.196001,9.216 103.351999,9.26399952 103.52,9.36 L103.52,13.032 C104.024003,11.831994 104.779995,10.8600037 105.788,10.116 C106.796005,9.37199628 107.995993,9 109.388,9 C111.236009,9 112.705995,9.599994 113.798,10.8 C114.890005,12.000006 115.436,13.6199898 115.436,15.66 L115.436,26.604 C115.436,27.4440042 115.148003,27.864 114.572,27.864 C114.427999,27.864 114.272001,27.8160005 114.104,27.72 L114.104,15.66 C114.104,13.9559915 113.678004,12.606005 112.826,11.61 C111.973996,10.613995 110.828007,10.116 109.388,10.116 C108.211994,10.116 107.180004,10.4579966 106.292,11.142 C105.403996,11.8260034 104.720002,12.7799939 104.24,14.004 C103.759998,15.2280061 103.52,16.643992 103.52,18.252 L103.52,26.604 C103.52,27.4440042 103.232003,27.864 102.656,27.864 Z" id="man" fill="#323232"></path>
                <path d="M26.048,28.008 C24.2239909,28.008 22.7600055,27.4200059 21.656,26.244 C20.5519945,25.0679941 20,23.3880109 20,21.204 L20,11.196 C20,10.5239966 20.1679983,9.99000198 20.504,9.594 C20.8400017,9.19799802 21.3199969,9 21.944,9 C22.3040018,9 22.6399984,9.04799952 22.952,9.144 L22.952,21.42 C22.952,22.6920064 23.2939966,23.6999963 23.978,24.444 C24.6620034,25.1880037 25.5919941,25.56 26.768,25.56 C28.1360068,25.56 29.2099961,24.8760068 29.99,23.508 C30.7700039,22.1399932 31.16,20.2080125 31.16,17.712 L31.16,11.196 C31.16,10.5239966 31.3279983,9.99000198 31.664,9.594 C32.0000017,9.19799802 32.4799969,9 33.104,9 C33.4640018,9 33.7999984,9.04799952 34.112,9.144 L34.112,25.596 C34.112,26.2680034 33.9440017,26.801998 33.608,27.198 C33.2719983,27.594002 32.7920031,27.792 32.168,27.792 C31.8079982,27.792 31.4720016,27.7440005 31.16,27.648 L31.16,23.868 C30.3919962,26.6280138 28.6880132,28.008 26.048,28.008 Z" id="u" fill="#59A6A6"></path>
                <path d="M46.388,28.224 C44.7319917,28.224 43.2680064,27.8400038 41.996,27.072 C40.7239936,26.3039962 39.7400035,25.2000072 39.044,23.76 C38.3479965,22.3199928 38,20.6400096 38,18.72 C38,16.7759903 38.3539965,15.0720073 39.062,13.608 C39.7700035,12.1439927 40.7539937,11.010004 42.014,10.206 C43.2740063,9.40199598 44.7319917,9 46.388,9 C48.7400118,9 50.5819933,9.79799202 51.914,11.394 C53.2460067,12.990008 53.912,15.1559863 53.912,17.892 C53.912,18.5640034 53.8220009,19.0199988 53.642,19.26 C53.4619991,19.5000012 53.0960028,19.62 52.544,19.62 L40.952,19.62 C40.952,21.5160095 41.4379951,23.0279944 42.41,24.156 C43.3820049,25.2840056 44.6839918,25.848 46.316,25.848 C47.516006,25.848 48.6019951,25.5840026 49.574,25.056 C50.5460049,24.5279974 51.3199971,23.8320043 51.896,22.968 C52.6160036,23.2320013 52.976,23.7719959 52.976,24.588 C52.976,25.2360032 52.6520032,25.8359972 52.004,26.388 C51.3559968,26.9400028 50.5220051,27.3839983 49.502,27.72 C48.4819949,28.0560017 47.4440053,28.224 46.388,28.224 Z M50.96,17.208 C50.9119998,15.2639903 50.5280036,13.794005 49.808,12.798 C49.0879964,11.801995 47.9960073,11.304 46.532,11.304 C44.9959923,11.304 43.7600047,11.8319947 42.824,12.888 C41.8879953,13.9440053 41.2880013,15.4799899 41.024,17.496 L50.96,17.208 Z" id="e" fill="#5959A6"></path>
            </g>
        </g>
    </g>
</svg>